<svg width="60" height="60" viewBox="0 0 60 60" fill="none" xmlns="http://www.w3.org/2000/svg">
<path d="M59.8471 56.1158C59.8471 58.1737 58.1743 59.8465 56.1164 59.8465H3.88508C1.82727 59.8465 0.154297 58.1737 0.154297 56.1158V3.88435C0.154297 1.82653 1.82727 0.153564 3.88508 0.153564H56.1164C58.1743 0.153564 59.8471 1.82653 59.8471 3.88435V56.1158Z" fill="url(#paint0_linear_615_46)"/>
<path d="M12.9689 15.2601H47.0551C48.8504 15.2601 50.3153 16.725 50.3153 18.5199V41.4805C50.3153 43.2763 48.8504 44.7398 47.0551 44.7398H12.9689C11.1499 44.7398 9.68555 43.2764 9.68555 41.4805V18.5199C9.68555 16.725 11.1499 15.2601 12.9689 15.2601Z" fill="white"/>
<path d="M30.0005 34.0072L46.152 22.6037V44.8867H47.2255C49.0389 44.8867 50.5184 43.4086 50.5184 41.5946V19.526V18.4047C50.5184 16.8777 49.4679 15.5895 48.0359 15.2074L30.0005 27.9477L11.9872 15.2074C10.5552 15.5652 9.48242 16.8774 9.48242 18.4047V19.502V41.5949C9.48242 43.4086 10.9612 44.8869 12.7986 44.8869H13.8481V22.6038L30.0005 34.0072Z" fill="#799EA6"/>
<path d="M46.1523 22.6038V44.8869H47.2258C49.0393 44.8869 50.5188 43.4088 50.5188 41.5949V19.526L46.1523 22.6038Z" fill="#799EA6"/>
<defs>
<linearGradient id="paint0_linear_615_46" x1="30.0007" y1="0.153564" x2="30.0007" y2="59.8465" gradientUnits="userSpaceOnUse">
<stop stop-color="#B6DAE2"/>
<stop offset="1" stop-color="#789DA5"/>
</linearGradient>
</defs>
</svg>
