<svg width="60" height="60" viewBox="0 0 60 60" fill="none" xmlns="http://www.w3.org/2000/svg">
<path d="M60 46.5352C60 53.9766 53.9648 60 46.5352 60H13.4648C6.03516 60 0 53.9648 0 46.5352V13.4648C0 6.03516 6.03516 0 13.4648 0H46.5352C53.9648 0 60 6.03516 60 13.4648V46.5352Z" fill="url(#paint0_linear_615_42)"/>
<path d="M44.8951 15.7148L13.6295 27.8906C12.6217 28.289 12.6803 29.7422 13.7232 30.0468L21.6685 32.3906L24.6334 41.8008C24.9381 42.7851 26.192 43.0781 26.9068 42.3398L31.0201 38.1445L39.0826 44.0625C40.067 44.789 41.4732 44.25 41.7193 43.0547L47.0513 17.5312C47.3209 16.289 46.0904 15.2461 44.8951 15.7148ZM40.981 21.375L26.4615 34.2187C26.3209 34.3476 26.2271 34.5234 26.2037 34.7109L25.6412 39.6797C25.6178 39.8437 25.3951 39.8672 25.3482 39.7031L23.0514 32.2851C22.9459 31.9453 23.0865 31.582 23.3912 31.3945L40.5357 20.7539C40.9224 20.5312 41.3326 21.0703 40.981 21.375Z" fill="white"/>
<defs>
<linearGradient id="paint0_linear_615_42" x1="30" y1="0" x2="30" y2="60" gradientUnits="userSpaceOnUse">
<stop stop-color="#B6DAE2"/>
<stop offset="1" stop-color="#789DA5"/>
</linearGradient>
</defs>
</svg>
