<svg width="60" height="60" viewBox="0 0 60 60" fill="none" xmlns="http://www.w3.org/2000/svg">
<path d="M13.62 0C12.3 0.06 10.56 0.18 9.78 0.36C8.58 0.6 7.44 0.96 6.54 1.44C5.4 1.98 4.44 2.7 3.6 3.54C2.7 4.44 1.98 5.4 1.44 6.54C0.96 7.44 0.6 8.58 0.36 9.78C0.18 10.56 0.06 12.3 0.06 13.62C0 14.16 0 14.88 0 15.24V44.7601V46.3801C0.06 47.7001 0.18 49.4401 0.36 50.2201C0.6 51.4201 0.96 52.5601 1.44 53.4601C1.98 54.6001 2.7 55.5601 3.54 56.4001C4.44 57.3001 5.4 58.0201 6.54 58.5601C7.44 59.0401 8.58 59.4001 9.78 59.6401C10.56 59.8201 12.3 59.9401 13.62 59.9401C14.16 60.0001 14.88 60.0001 15.24 60.0001H44.76H46.38C47.7 59.9401 49.44 59.8201 50.22 59.6401C51.42 59.4001 52.56 59.0401 53.46 58.5601C54.6 58.0201 55.56 57.3001 56.4 56.4601C57.3 55.5601 58.02 54.6001 58.56 53.4601C59.04 52.5601 59.4 51.4201 59.64 50.2201C59.82 49.4401 59.94 47.7001 59.94 46.3801C60 45.8401 60 45.1201 60 44.7601V13.62C59.94 12.3 59.82 10.56 59.64 9.78C59.4 8.58 59.04 7.44 58.56 6.54C58.02 5.4 57.3 4.44 56.46 3.6C55.56 2.7 54.6 1.98 53.46 1.44C52.56 0.96 51.42 0.6 50.22 0.36C49.44 0.18 47.7 0.06 46.38 0.06C45.84 -6.98492e-09 45.12 0 44.76 0H13.62Z" fill="url(#paint0_linear_615_39)"/>
<path fill-rule="evenodd" clip-rule="evenodd" d="M40.4 33.949C39.8657 33.6816 37.2383 32.3891 36.7484 32.2109C36.2585 32.0326 35.9024 31.9435 35.5461 32.4783C35.1898 33.0131 34.1657 34.2164 33.8539 34.573C33.5422 34.9295 33.2305 34.9742 32.6961 34.7066C32.1616 34.4393 30.4398 33.8752 28.3986 32.055C26.81 30.6386 25.7374 28.889 25.4257 28.3541C25.114 27.8193 25.3925 27.5302 25.6601 27.2638C25.9004 27.0246 26.1945 26.6399 26.4616 26.328C26.7288 26.016 26.8179 25.7931 26.996 25.4366C27.1741 25.0801 27.0851 24.7681 26.9515 24.5006C26.8179 24.2332 25.7491 21.6038 25.3038 20.5341C24.8701 19.4924 24.4295 19.6334 24.1015 19.617C23.7901 19.6015 23.4335 19.5982 23.0773 19.5982C22.7209 19.5982 22.1421 19.7319 21.6521 20.2667C21.1623 20.8015 19.7818 22.0941 19.7818 24.7235C19.7818 27.353 21.6967 29.8934 21.9639 30.25C22.2312 30.6066 25.7323 36.0026 31.093 38.3167C32.368 38.8671 33.3634 39.1957 34.1395 39.4421C35.4197 39.8486 36.5848 39.7913 37.5055 39.6537C38.5322 39.5003 40.6672 38.3612 41.1127 37.1134C41.5579 35.8655 41.5578 34.7958 41.4243 34.573C41.2908 34.3501 40.9345 34.2164 40.4 33.949ZM30.6492 47.2583H30.6421C27.4522 47.2571 24.3237 46.4005 21.5944 44.7814L20.9453 44.3962L14.2172 46.1605L16.0131 39.6028L15.5903 38.9306C13.8109 36.1012 12.8712 32.8309 12.8725 29.4731C12.8763 19.675 20.8509 11.7034 30.6564 11.7034C35.4045 11.7053 39.8677 13.5563 43.2239 16.9152C46.5802 20.2742 48.4275 24.7391 48.4257 29.4874C48.4216 39.2863 40.4473 47.2583 30.6492 47.2583ZM45.7784 14.3628C41.7404 10.3214 36.3704 8.09475 30.6491 8.09241C18.8606 8.09241 9.26613 17.6832 9.26145 29.4717C9.25992 33.24 10.2446 36.9185 12.1162 40.1606L9.08203 51.2401L20.4199 48.2671C23.5438 49.9704 27.0609 50.868 30.6405 50.8695H30.6493C42.4368 50.8695 52.032 41.2774 52.0368 29.4889C52.039 23.7758 49.8165 18.4041 45.7784 14.3628Z" fill="white"/>
<defs>
<linearGradient id="paint0_linear_615_39" x1="30" y1="60.0001" x2="30" y2="0.000114441" gradientUnits="userSpaceOnUse">
<stop stop-color="#789DA5" stop-opacity="0.73"/>
<stop offset="0.0001" stop-color="#6F929A" stop-opacity="0.73"/>
<stop offset="1" stop-color="#B6DAE2"/>
</linearGradient>
</defs>
</svg>
