<svg width="36" height="35" viewBox="0 0 36 35" fill="none" xmlns="http://www.w3.org/2000/svg">
<path d="M15.1468 2.78115C16.0449 0.0172152 19.9551 0.0172203 20.8532 2.78115L22.9393 9.20163C23.3409 10.4377 24.4928 11.2746 25.7925 11.2746H32.5434C35.4495 11.2746 36.6579 14.9934 34.3067 16.7016L28.8451 20.6697C27.7937 21.4336 27.3537 22.7877 27.7553 24.0238L29.8415 30.4443C30.7395 33.2082 27.5761 35.5066 25.2249 33.7984L19.7634 29.8303C18.7119 29.0664 17.2881 29.0664 16.2366 29.8303L10.7751 33.7984C8.42392 35.5066 5.26048 33.2082 6.15854 30.4443L8.24468 24.0238C8.6463 22.7877 8.20632 21.4336 7.15486 20.6697L1.69328 16.7016C-0.657865 14.9934 0.550467 11.2746 3.45664 11.2746H10.2075C11.5072 11.2746 12.6591 10.4377 13.0607 9.20163L15.1468 2.78115Z" fill="#406071"/>
</svg>
