<svg width="1441" height="454" viewBox="0 0 1441 454" fill="none" xmlns="http://www.w3.org/2000/svg">
<path d="M0.00849533 -0.000613738H255.647L701.12 -0.000789214L1155.9 -0.000613738H1440.01V313.782V453.999H1063.65H765.515H303.502H0.00849533V305.46V-0.000613738Z" fill="#125880"/>
<path d="M0.00849533 -0.000613738H255.647L701.12 -0.000789214L1155.9 -0.000613738H1440.01V313.782V453.999H1063.65H765.515H303.502H0.00849533V305.46V-0.000613738Z" fill="#125880"/>
<path d="M765.515 453.999C303.502 453.999 431.908 453.999 303.502 453.999C765.515 453.999 175.096 453.999 303.502 453.999C765.515 453.999 765.515 453.999 303.502 453.999C316.655 338.071 415.063 247.999 534.508 247.999C653.954 247.999 752.362 338.071 765.515 453.999C303.502 453.999 303.502 453.999 765.515 453.999Z" fill="#166795"/>
<path d="M1440.01 453.999C1063.65 453.999 1440.01 453.999 1063.65 453.999C1080.51 343.585 1175.88 258.999 1291.01 258.999C1347.85 258.999 1399.87 279.617 1440.01 313.782C1440.01 453.999 1440.01 383.813 1440.01 453.999Z" fill="#166795"/>
<path d="M1164.01 61.4994C1164.01 191.562 1058.57 296.999 928.508 296.999C798.445 296.999 693.008 191.562 693.008 61.4994C693.008 40.2225 695.83 19.6043 701.12 -0.000789214C1155.9 -0.000121642 1155.9 0.000175476 701.12 -0.000789214C1155.9 -0.00122409 701.12 -0.000789214 1155.9 -0.000613738C1161.19 19.6045 1164.01 40.2225 1164.01 61.4994Z" fill="#166795"/>
<path d="M284.009 105.999C284.009 223.084 189.093 317.999 72.0085 317.999C46.7313 317.999 22.4873 313.575 0.00849533 305.46C0.00568771 -0.000762939 0 397.267 0 305.46C0 188.375 0.00769424 305.46 0.00419998 -0.000613738C78.4741 -0.000613738 0.00419617 -0.000613738 255.647 -0.000613738C273.685 31.1818 284.009 67.385 284.009 105.999Z" fill="#166795"/>
</svg>
