<svg width="1442" height="454" viewBox="0 0 1442 454" fill="none" xmlns="http://www.w3.org/2000/svg">
<path d="M1.00654 -0.000613738H256.645L702.118 -0.000789214L1156.9 -0.000613738H1441.01V313.782V453.999H1064.65H766.513H304.5H1.00654V305.46V-0.000613738Z" fill="#125880"/>
<path d="M1.00654 -0.000613738H256.645L702.118 -0.000789214L1156.9 -0.000613738H1441.01V313.782V453.999H1064.65H766.513H304.5H1.00654V305.46V-0.000613738Z" fill="#5BA1C9"/>
<path d="M766.513 453.999C304.5 453.999 432.906 453.999 304.5 453.999C766.513 453.999 176.094 453.999 304.5 453.999C766.513 453.999 766.513 453.999 304.5 453.999C317.653 338.071 416.061 247.999 535.506 247.999C654.952 247.999 753.36 338.071 766.513 453.999C304.5 453.999 304.5 453.999 766.513 453.999Z" fill="#82B7D4"/>
<path d="M1441.01 453.999C1064.65 453.999 1441.01 453.999 1064.65 453.999C1081.51 343.585 1176.88 258.999 1292.01 258.999C1348.85 258.999 1400.87 279.617 1441.01 313.782C1441.01 453.999 1441.01 383.813 1441.01 453.999Z" fill="#82B7D4"/>
<path d="M1165.01 61.4994C1165.01 191.562 1059.57 296.999 929.506 296.999C799.443 296.999 694.006 191.562 694.006 61.4994C694.006 40.2225 696.828 19.6043 702.118 -0.000789214C1156.9 -0.000121642 1156.9 0.000175476 702.118 -0.000789214C1156.9 -0.00122409 702.118 -0.000789214 1156.9 -0.000613738C1162.18 19.6045 1165.01 40.2225 1165.01 61.4994Z" fill="#82B7D4"/>
<path d="M285.007 105.999C285.007 223.084 190.091 317.999 73.0065 317.999C47.7293 317.999 23.4853 313.575 1.00654 305.46C1.00373 -0.000762939 0.998047 397.267 0.998047 305.46C0.998047 188.375 1.00574 305.46 1.00225 -0.000613738C79.4722 -0.000613738 1.00224 -0.000613738 256.645 -0.000613738C274.683 31.1818 285.007 67.385 285.007 105.999Z" fill="#82B7D4"/>
</svg>
