<svg width="1441" height="454" viewBox="0 0 1441 454" fill="none" xmlns="http://www.w3.org/2000/svg">
<path d="M0.00195312 0H546.022H959.982H1145.84H1440V209.163V454H1310.17H859.835H628.839H187.165H0.00195312V221.431V0Z" fill="#125880"/>
<path d="M0.00195312 0H546.022H959.982H1145.84H1440V209.163V454H1310.17H859.835H628.839H187.165H0.00195312V221.431V0Z" fill="#393939"/>
<path d="M408.002 227L628.839 354.5V454H187.165V354.5L408.002 227Z" fill="#313131"/>
<path d="M0.00195312 0H299.766L299.767 131.5L72.002 263L0.00195312 221.431V0Z" fill="#313131"/>
<path d="M1085 243L1310.17 373V454H859.835V373L1085 243Z" fill="#313131"/>
<path d="M1440 209.163L1371 249L1145.84 119V0H1440V209.163Z" fill="#313131"/>
<path d="M959.982 0V158.5L753.002 278L546.022 158.5V0H959.982Z" fill="#313131"/>
</svg>
