<svg width="1440" height="454" viewBox="0 0 1440 454" fill="none" xmlns="http://www.w3.org/2000/svg">
<path d="M0 0H546.02H959.98H1145.83H1440V209.163V454H1310.17H859.833H628.837H187.164H0V221.431V0Z" fill="#125880"/>
<path d="M0 0H546.02H959.98H1145.83H1440V209.163V454H1310.17H859.833H628.837H187.164H0V221.431V0Z" fill="#CBCBCB"/>
<path d="M408 227L628.837 354.5V454H187.164V354.5L408 227Z" fill="#B3B3B3"/>
<path d="M0 0H299.764L299.765 131.5L72 263L0 221.431V0Z" fill="#B3B3B3"/>
<path d="M1085 243L1310.17 373V454H859.833V373L1085 243Z" fill="#B3B3B3"/>
<path d="M1440 209.163L1371 249L1145.83 119V0H1440V209.163Z" fill="#B3B3B3"/>
<path d="M959.98 0V158.5L753 278L546.02 158.5V0H959.98Z" fill="#B3B3B3"/>
</svg>
