<svg width="1440" height="454" viewBox="0 0 1440 454" fill="none" xmlns="http://www.w3.org/2000/svg">
<path d="M0 0.0633316L919.059 0.0634384L1440 0.0634985V290.677V351.317V454H603.287H542.768H0V0.0633316Z" fill="#125880"/>
<path d="M0 0.0633316L919.059 0.0634384L1440 0.0634985V290.677V351.317V454H603.287H542.768H0V0.0633316Z" fill="#DA89B9"/>
<path d="M131.365 72.1591C132.632 47.9776 164.107 39.5452 177.297 59.8533L220.701 126.68C226.6 135.762 237.677 140.014 248.139 137.211L325.116 116.588C348.509 110.32 366.256 137.645 351.015 156.463L300.863 218.388C294.047 226.804 293.426 238.65 299.325 247.733L342.729 314.559C355.919 334.868 335.412 360.188 312.803 351.51L238.403 322.954C228.292 319.073 216.831 322.144 210.015 330.56L159.863 392.484C144.622 411.303 114.201 399.627 115.468 375.445L119.639 295.872C120.206 285.058 113.744 275.109 103.632 271.228L29.2326 242.673C6.62309 233.995 8.3285 201.459 31.7214 195.192L108.699 174.568C119.161 171.766 126.627 162.546 127.194 151.732L131.365 72.1591Z" fill="#E49EC8"/>
<path d="M600.312 294.001C614.71 281.039 637.285 294.071 633.257 313.02L625.272 350.582C623.471 359.056 627.331 367.726 634.835 372.057L668.096 391.258C684.875 400.944 679.455 426.439 660.186 428.464L621.991 432.478C613.373 433.383 606.32 439.734 604.518 448.208L603.287 454H542.768C603.287 454 542.768 454 603.287 454H542.768C603.287 454 603.287 454 542.768 454C539.088 446.486 531.09 442.03 522.716 442.91L484.521 446.924C465.252 448.949 454.649 425.138 469.047 412.176L497.589 386.48C504.028 380.684 506.001 371.4 502.477 363.486L486.856 328.405C478.976 310.708 498.348 293.268 515.127 302.953L548.388 322.154C555.891 326.486 565.331 325.493 571.77 319.697L600.312 294.001Z" fill="#E49EC8"/>
<path d="M915.258 12.0223C915.5 7.40523 916.889 3.38624 919.059 0.0634384C959.28 0.0634431 918.991 -0.0793499 959.286 0.0635128L1004.72 70.0561C1010.38 78.7749 1021.02 82.8563 1031.06 80.1656L1111.52 58.6103C1133.97 52.5937 1151.01 78.8251 1136.38 96.8908L1083.96 161.614C1077.42 169.693 1076.82 181.067 1082.48 189.785L1127.85 259.633C1140.51 279.129 1120.82 303.436 1099.12 295.105L1021.36 265.259C1011.65 261.534 1000.65 264.481 994.104 272.56L941.685 337.284C927.054 355.349 897.85 344.141 899.066 320.926L903.426 237.757C903.97 227.375 897.766 217.824 888.059 214.098L810.297 184.252C788.591 175.921 790.229 144.687 812.686 138.67L893.143 117.115C903.186 114.424 910.354 105.573 910.898 95.1917L915.258 12.0223Z" fill="#E49EC8"/>
<path d="M1361.39 205.971C1373 188.1 1400.7 195.52 1401.81 216.8L1404.36 265.393C1404.86 274.909 1411.43 283.023 1420.64 285.489L1440 290.677V351.317C1440 290.677 1440 351.317 1440 290.677V351.317L1424.4 357.304C1415.5 360.719 1409.82 369.475 1410.31 378.991L1412.86 427.584C1413.98 448.864 1387.21 459.138 1373.79 442.578L1343.17 404.763C1337.17 397.357 1327.08 394.655 1318.19 398.07L1272.75 415.508C1252.86 423.144 1234.81 400.863 1246.42 382.992L1272.92 342.183C1278.11 334.19 1277.57 323.765 1271.57 316.359L1240.94 278.544C1227.53 261.984 1243.15 237.938 1263.73 243.453L1310.74 256.047C1319.95 258.514 1329.7 254.772 1334.89 246.78L1361.39 205.971Z" fill="#E49EC8"/>
</svg>
