<svg width="1441" height="454" viewBox="0 0 1441 454" fill="none" xmlns="http://www.w3.org/2000/svg">
<path d="M0.00195312 0.0633316L919.061 0.0634384L1440 0.0634985V290.677V351.317V454H603.289H542.77H0.00195312V0.0633316Z" fill="#125880"/>
<path d="M0.00195312 0.0633316L919.061 0.0634384L1440 0.0634985V290.677V351.317V454H603.289H542.77H0.00195312V0.0633316Z" fill="#622549"/>
<path d="M131.367 72.1591C132.634 47.9776 164.109 39.5452 177.299 59.8533L220.703 126.68C226.602 135.762 237.679 140.014 248.141 137.211L325.118 116.588C348.511 110.32 366.258 137.645 351.017 156.463L300.865 218.388C294.049 226.804 293.428 238.65 299.327 247.733L342.731 314.559C355.921 334.868 335.414 360.188 312.805 351.51L238.405 322.954C228.294 319.073 216.833 322.144 210.017 330.56L159.865 392.484C144.624 411.303 114.203 399.627 115.47 375.445L119.641 295.872C120.208 285.058 113.746 275.109 103.634 271.228L29.2346 242.673C6.62504 233.995 8.33045 201.459 31.7233 195.192L108.701 174.568C119.162 171.766 126.629 162.546 127.196 151.732L131.367 72.1591Z" fill="#682F51"/>
<path d="M600.314 294.001C614.712 281.039 637.287 294.071 633.259 313.02L625.274 350.582C623.473 359.056 627.333 367.726 634.837 372.057L668.098 391.258C684.877 400.944 679.457 426.439 660.188 428.464L621.992 432.478C613.375 433.383 606.322 439.734 604.52 448.208L603.289 454H542.77C603.289 454 542.77 454 603.289 454H542.77C603.289 454 603.289 454 542.77 454C539.09 446.486 531.092 442.03 522.718 442.91L484.523 446.924C465.254 448.949 454.651 425.138 469.049 412.176L497.591 386.48C504.03 380.684 506.003 371.4 502.479 363.486L486.858 328.405C478.978 310.708 498.35 293.268 515.129 302.953L548.39 322.154C555.893 326.486 565.333 325.493 571.772 319.697L600.314 294.001Z" fill="#682F51"/>
<path d="M915.259 12.0223C915.501 7.40523 916.891 3.38624 919.061 0.0634384C959.282 0.0634431 918.993 -0.0793499 959.288 0.0635128L1004.72 70.0561C1010.38 78.7749 1021.02 82.8563 1031.06 80.1656L1111.52 58.6103C1133.97 52.5937 1151.01 78.8251 1136.38 96.8908L1083.96 161.614C1077.42 169.693 1076.82 181.067 1082.48 189.785L1127.85 259.633C1140.51 279.129 1120.83 303.436 1099.12 295.105L1021.36 265.259C1011.65 261.534 1000.65 264.481 994.106 272.56L941.687 337.284C927.056 355.349 897.851 344.141 899.068 320.926L903.428 237.757C903.972 227.375 897.768 217.824 888.061 214.098L810.298 184.252C788.593 175.921 790.23 144.687 812.688 138.67L893.145 117.115C903.188 114.424 910.356 105.573 910.9 95.1917L915.259 12.0223Z" fill="#682F51"/>
<path d="M1361.39 205.971C1373 188.1 1400.7 195.52 1401.82 216.8L1404.36 265.393C1404.86 274.909 1411.43 283.023 1420.64 285.489L1440 290.677V351.317C1440 290.677 1440 351.317 1440 290.677V351.317L1424.4 357.304C1415.5 360.719 1409.82 369.475 1410.32 378.991L1412.86 427.584C1413.98 448.864 1387.21 459.138 1373.8 442.578L1343.17 404.763C1337.17 397.357 1327.09 394.655 1318.19 398.07L1272.76 415.508C1252.86 423.144 1234.81 400.863 1246.42 382.992L1272.93 342.183C1278.12 334.19 1277.57 323.765 1271.57 316.359L1240.95 278.544C1227.53 261.984 1243.15 237.938 1263.74 243.453L1310.74 256.047C1319.95 258.514 1329.7 254.772 1334.89 246.78L1361.39 205.971Z" fill="#682F51"/>
</svg>
